<?xml version="1.0" encoding="utf-8"?>
<!-- Generator: Adobe Illustrator 22.0.0, SVG Export Plug-In . SVG Version: 6.00 Build 0)  -->
<svg version="1.1" id="Calque_1" xmlns="http://www.w3.org/2000/svg" xmlns:xlink="http://www.w3.org/1999/xlink" x="0px" y="0px"
	 viewBox="0 0 100 100" style="enable-background:new 0 0 100 100;" xml:space="preserve">
<style type="text/css">
	.st0{fill:#E0E0E0;}
</style>
<path class="st0" d="M4,69.6c3.2,7.5,8.2,14.1,14.6,19.3V69.6H4z M18.6,11.1C7.2,20.3,0,34.3,0,50c0,3.4,0.3,6.6,1,9.8h17.6
	L18.6,11.1L18.6,11.1z M99,59.8c0.6-3.2,1-6.4,1-9.8c0-27.6-22.4-50-50-50c-2.1,0-4.1,0.1-6.1,0.4v59.4L99,59.8L99,59.8z M43.9,99.6
	c2,0.2,4,0.4,6.1,0.4c20.7,0,38.4-12.5,46-30.4H43.9V99.6z"/>
</svg>
